<svg width="48" version="1.0" xmlns="http://www.w3.org/2000/svg" height="48" xmlns:xlink="http://www.w3.org/1999/xlink">
<defs>
<linearGradient id="linearGradient854">
<stop offset="0" style="stop-color:#808080"/>
<stop offset="1" style="stop-color:#fff"/>
</linearGradient>
<linearGradient gradientTransform="matrix(0.30815559,0,0,0.30815849,3.5061569,11.547735)" id="linearGradient856" xlink:href="#linearGradient854" y1="72.862" y2="8.231" x1="76.24" gradientUnits="userSpaceOnUse" x2="76.240501"/>
<linearGradient gradientTransform="matrix(0.30815559,0,0,0.30815849,3.5061569,11.547735)" id="linearGradient864" xlink:href="#linearGradient854" y1="18.116" y2="62.704" x1="76.724098" gradientUnits="userSpaceOnUse" x2="76.24"/>
</defs>
<g style="color:#000">
<path style="fill:#fe0000" d="m 5,5 h 38 v 34.3008 h -8.52344 c -1.91012,0 -3.5,1.58988 -3.5,3.5 v 0.199219 h -14 v -0.199219 c 0,-1.91012 -1.58991,-3.5 -3.5,-3.5 h -8.47656 Z "/>
<path style="opacity:.6;fill:#fff" d="M 4.456,1 C 2.5,1 1,2.5 1,4.5 V 40 c 0,2 1.5,3.300781 3.5,3.300781 h 8.476563 V 43.5 c 0,1.904397 1.595597,3.5 3.5,3.5 h 15 c 1.904405,0 3.5,-1.59559 3.5,-3.5 V 43.300781 H 43.5 C 45.5,43.300781 47,42 47,40 V 4.5 C 47,2.5 45.5,1 43.5,1 Z"/>
</g>
<path style="fill:#2874d2" d="m 5.85,5.9 h 36.5 v 32.6 h -36.5 Z "/>
<path d="M 4.65625,3 C 3.714305,3 3,3.71469 3,4.65625 v 34.987913 c 0,0.94156 0.7143,1.65625 1.65625,1.65625 h 8.820312 c 0.827995,0 1.5,0.671975 1.5,1.5 v 0.7 c 0,0.831 0.668996,1.5 1.5,1.5 h 15 c 0.830996,0 1.5,-0.669 1.5,-1.5 v -0.7 c 0,-0.828 0.671996,-1.5 1.5,-1.5 L 43.34375,41.3 C 44.285699,41.3 45,40.585723 45,39.644163 V 4.65625 C 45,3.71469 44.285699,3 43.34375,3 Z M 6,6 H 42 V 38.300413 H 6 Z"/>
<rect width="5" x="26" y="42" rx="1" height="2" style="fill:#7fff2a"/>
<path style="opacity:.4" d="M 9.6737,11.2119 H 8.976435 c -1.06989,0 -2.17689,1.1052 -2.17686,2.17535 v 20.7202 c 0,1.07015 1.02798,2.09788 2.09787,2.09788 h 30.2047 c 1.07014,0 2.09787,-1.02773 2.09787,-2.09788 v -21.9674 c 0,-1.0699 -1.02771,-2.09788 -2.09787,-2.09788 h -14.0053 c -0.769606,0 -1.41672,0.479405 -1.72569,1.16971 h -7.03466 c -0.243472,-0.96783 -1.63449,-1.91186 -3.3311,-1.91181 -1.69661,0 -3.08818,0.944072 -3.3317,1.9119 z"/>
<path style="fill:#e0e0e0" d="m 12.9831,9.9414 c -1.5395,0 -2.78711,0.741254 -2.78711,1.65625 0,0.07964 0.011,0.157731 0.0293,0.234375 H 9.13154 c -0.915939,0 -1.6582,0.742532 -1.6582,1.6582 v 20.3848 c 0,0.915944 0.742538,1.6582 1.6582,1.6582 h 29.7364 c 0.916206,0 1.6582,-0.742264 1.6582,-1.6582 v -21.5547 c 0,-0.915402 -0.741997,-1.6582 -1.6582,-1.6582 h -13.616 c -0.74491,0 -1.36687,0.494233 -1.57617,1.16992 h -7.93289 c 0.01828,-0.07664 0.0293,-0.15473 0.0293,-0.234375 0,-0.914997 -1.24902,-1.65625 -2.78906,-1.65625 z"/>
<path style="fill:#48b400" d="m 38.9784,15.275 c 0,0.137907 -0.103163,0.250025 -0.230748,0.250025 h -3.5303 c -0.127589,0 -0.230749,-0.112118 -0.230749,-0.250025 v -2.50798 c 0,-0.138178 0.103164,-0.250023 0.230749,-0.250023 h 3.5303 c 0.127591,0 0.230748,0.111845 0.230748,0.250023 z"/>
<path style="fill:url(#linearGradient856)" d="m 17,24 c 0,5.51388 4.48613,10 10,10 5.51383,0 10,-4.48617 10,-10 0,-5.51449 -4.48613,-10 -10,-10 -5.51383,0 -10,4.48617 -10,10 z"/>
<path style="fill:url(#linearGradient864)" d="m 33.8703,24 c 0,3.79436 -3.0757,6.8698 -6.87037,6.8698 -3.79433,0 -6.87037,-3.07542 -6.87037,-6.8698 0,-3.79497 3.076,-6.87043 6.87037,-6.87043 3.79463,0 6.87037,3.07542 6.87037,6.87043 z"/>
<path style="fill:#282828" d="m 31.1874,24 c 0,2.31307 -1.87389,4.18695 -4.18752,4.18695 -2.31304,0 -4.18753,-1.87422 -4.18753,-4.18695 0,-2.31307 1.87451,-4.18818 4.18753,-4.18818 2.31363,0 4.18752,1.87484 4.18752,4.18818 z"/>
<path style="fill:#2162af" d="m 29.4565,24 c 0,1.35713 -1.0998,2.45663 -2.45693,2.45663 -1.35589,0 -2.45693,-1.09951 -2.45693,-2.45663 0,-1.35683 1.10073,-2.45695 2.45693,-2.45695 1.35712,0 2.45693,1.10013 2.45693,2.45695 z"/>
</svg>
